<svg width="32" height="32" viewBox="0 0 32 32" fill="none" xmlns="http://www.w3.org/2000/svg">
<path d="M26.5 14.5H28V4H4V14.5H5.5M26.5 14.5V15.5L27.5 17V24L26.5 25.5H11M26.5 14.5L25.5 13V8L24.5 7H20H8L6.5 8V13L5.5 14.5M5.5 14.5V15.5L4.5 17V24L5.5 25.5H8M8 25.5V27.5L9.5 28.5L11 27.5V25.5M8 25.5H11M21 25.5V27.5L22.5 28.5L24 27.5V25.5H21Z" stroke="#D3BA84"/>
<path d="M21 7V4" stroke="#D3BA84"/>
<path d="M11 7V4" stroke="#D3BA84"/>
<circle cx="23" cy="20" r="1.5" stroke="#D3BA84"/>
<circle cx="9" cy="20" r="1.5" stroke="#D3BA84"/>
<path d="M19.5 20.6429H16H12.5V19.3571H16H19.5V20.6429ZM19.5 17V18.3571H16H12.5V17C12.5 16.7239 12.7239 16.5 13 16.5H19C19.2761 16.5 19.5 16.7239 19.5 17ZM19.5 21.6429V23C19.5 23.2761 19.2761 23.5 19 23.5H13C12.7239 23.5 12.5 23.2761 12.5 23V21.6429H16H19.5Z" stroke="#D3BA84"/>
<path d="M26 14H6" stroke="#D3BA84"/>
<path d="M9.5 8L7.5 9.5M11.5 8.22268L8 11" stroke="#D3BA84"/>
</svg>
